<svg width="200" height="196" viewBox="0 0 200 196" fill="none" xmlns="http://www.w3.org/2000/svg">
<path d="M191.666 91.6667H175V75C175 72.7899 174.122 70.6702 172.559 69.1074C170.996 67.5446 168.876 66.6667 166.666 66.6667C164.456 66.6667 162.337 67.5446 160.774 69.1074C159.211 70.6702 158.333 72.7899 158.333 75V91.6667H141.666C139.456 91.6667 137.337 92.5446 135.774 94.1074C134.211 95.6702 133.333 97.7898 133.333 100C133.333 102.21 134.211 104.33 135.774 105.893C137.337 107.455 139.456 108.333 141.666 108.333H158.333V125C158.333 127.21 159.211 129.33 160.774 130.893C162.337 132.455 164.456 133.333 166.666 133.333C168.876 133.333 170.996 132.455 172.559 130.893C174.122 129.33 175 127.21 175 125V108.333H191.666C193.876 108.333 195.996 107.455 197.559 105.893C199.122 104.33 200 102.21 200 100C200 97.7898 199.122 95.6702 197.559 94.1074C195.996 92.5446 193.876 91.6667 191.666 91.6667Z" fill="white"/>
<path d="M75 100C84.8891 100 94.556 97.0675 102.779 91.5735C111.001 86.0794 117.41 78.2705 121.194 69.1342C124.978 59.9979 125.969 49.9445 124.039 40.2455C122.11 30.5464 117.348 21.6373 110.355 14.6447C103.363 7.65206 94.4536 2.89002 84.7545 0.960758C75.0555 -0.968502 65.0021 0.0216643 55.8658 3.80604C46.7295 7.59043 38.9206 13.999 33.4265 22.2215C27.9324 30.444 25 40.1109 25 50C25.0132 63.2568 30.2853 75.9668 39.6593 85.3407C49.0332 94.7147 61.7432 99.9868 75 100ZM75 16.6667C81.5927 16.6667 88.0374 18.6217 93.519 22.2844C99.0006 25.9471 103.273 31.153 105.796 37.2439C108.319 43.3348 108.979 50.037 107.693 56.503C106.407 62.9691 103.232 68.9085 98.5702 73.5702C93.9085 78.232 87.969 81.4067 81.503 82.6928C75.037 83.979 68.3348 83.3189 62.2439 80.796C56.153 78.2731 50.9471 74.0006 47.2843 68.519C43.6216 63.0374 41.6667 56.5927 41.6667 50C41.6667 41.1595 45.1786 32.681 51.4298 26.4298C57.681 20.1786 66.1594 16.6667 75 16.6667Z" fill="white"/>
<path d="M75 112C55.1155 112.022 36.0518 119.931 21.9913 133.991C7.9309 148.052 0.0220571 167.116 0 187C0 189.21 0.877974 191.33 2.44078 192.893C4.00358 194.455 6.12319 195.333 8.33333 195.333C10.5435 195.333 12.6631 194.455 14.2259 192.893C15.7887 191.33 16.6667 189.21 16.6667 187C16.6667 171.529 22.8125 156.692 33.7521 145.752C44.6917 134.812 59.529 128.667 75 128.667C90.4709 128.667 105.308 134.812 116.248 145.752C127.187 156.692 133.333 171.529 133.333 187C133.333 189.21 134.211 191.33 135.774 192.893C137.337 194.455 139.457 195.333 141.667 195.333C143.877 195.333 145.996 194.455 147.559 192.893C149.122 191.33 150 189.21 150 187C149.978 167.116 142.069 148.052 128.009 133.991C113.948 119.931 94.8845 112.022 75 112Z" fill="white"/>
</svg>
