<svg width="118" height="118" viewBox="0 0 118 118" fill="none" xmlns="http://www.w3.org/2000/svg">
<g clip-path="url(#clip0_42_615)">
<path d="M24.5833 9.83333H29.5V4.91667C29.5 3.61269 30.018 2.36211 30.9401 1.44006C31.8621 0.518005 33.1127 0 34.4167 0C35.7206 0 36.9712 0.518005 37.8933 1.44006C38.8153 2.36211 39.3333 3.61269 39.3333 4.91667V9.83333H78.6667V4.91667C78.6667 3.61269 79.1847 2.36211 80.1067 1.44006C81.0288 0.518005 82.2794 0 83.5833 0C84.8873 0 86.1379 0.518005 87.0599 1.44006C87.982 2.36211 88.5 3.61269 88.5 4.91667V9.83333H93.4167C99.9342 9.84114 106.183 12.4337 110.791 17.0422C115.4 21.6508 117.992 27.8992 118 34.4167L118 93.4167C117.992 99.9342 115.4 106.183 110.791 110.791C106.183 115.4 99.9342 117.992 93.4167 118H24.5833C18.0658 117.992 11.8175 115.4 7.20892 110.791C2.60033 106.183 0.0078125 99.9342 0 93.4167V34.4167C0.0078125 27.8992 2.60033 21.6508 7.20892 17.0422C11.8175 12.4337 18.0658 9.84114 24.5833 9.83333ZM108.167 34.4167C108.167 30.5047 106.613 26.753 103.846 23.9868C101.08 21.2207 97.3286 19.6667 93.4167 19.6667H24.5833C20.6714 19.6667 16.9197 21.2207 14.1535 23.9868C11.3874 26.753 9.83334 30.5047 9.83334 34.4167V39.3333H108.167V34.4167ZM24.5833 108.167H93.4167C97.3286 108.167 101.08 106.613 103.846 103.846C106.613 101.08 108.167 97.3286 108.167 93.4167V49.1667H9.83334V93.4167C9.83334 97.3286 11.3874 101.08 14.1535 103.846C16.9197 106.613 20.6714 108.167 24.5833 108.167Z" fill="white"/>
<path d="M59 81.125C54.9269 81.125 51.625 77.8231 51.625 73.75C51.625 69.6769 54.9269 66.375 59 66.375C63.0731 66.375 66.375 69.6769 66.375 73.75C66.375 77.8231 63.0731 81.125 59 81.125Z" fill="white"/>
<path d="M83.583 81.125C79.5099 81.125 76.208 77.8231 76.208 73.75C76.208 69.6769 79.5099 66.375 83.583 66.375C87.6561 66.375 90.958 69.6769 90.958 73.75C90.958 77.8231 87.6561 81.125 83.583 81.125Z" fill="white"/>
<path d="M34.417 81.125C30.3439 81.125 27.042 77.8231 27.042 73.75C27.042 69.6769 30.3439 66.375 34.417 66.375C38.4901 66.375 41.792 69.6769 41.792 73.75C41.792 77.8231 38.4901 81.125 34.417 81.125Z" fill="white"/>
</g>
<defs>
<clipPath id="clip0_42_615">
<rect width="118" height="118" fill="white" transform="matrix(-1 0 0 1 118 0)"/>
</clipPath>
</defs>
</svg>
