<svg width="116" height="116" viewBox="0 0 116 116" fill="current" xmlns="http://www.w3.org/2000/svg">
<g clip-path="url(#clip0_168_95)">
<path d="M82.167 67.6666C82.167 68.9485 81.6578 70.1779 80.7514 71.0843C79.8449 71.9908 78.6155 72.5 77.3337 72.5H38.667C37.3851 72.5 36.1557 71.9908 35.2493 71.0843C34.3429 70.1779 33.8337 68.9485 33.8337 67.6666C33.8337 66.3848 34.3429 65.1554 35.2493 64.249C36.1557 63.3425 37.3851 62.8333 38.667 62.8333H77.3337C78.6155 62.8333 79.8449 63.3425 80.7514 64.249C81.6578 65.1554 82.167 66.3848 82.167 67.6666ZM62.8337 82.1666H38.667C37.3851 82.1666 36.1557 82.6759 35.2493 83.5823C34.3429 84.4887 33.8337 85.7181 33.8337 87C33.8337 88.2819 34.3429 89.5112 35.2493 90.4177C36.1557 91.3241 37.3851 91.8333 38.667 91.8333H62.8337C64.1155 91.8333 65.3449 91.3241 66.2513 90.4177C67.1578 89.5112 67.667 88.2819 67.667 87C67.667 85.7181 67.1578 84.4887 66.2513 83.5823C65.3449 82.6759 64.1155 82.1666 62.8337 82.1666ZM106.334 50.6775V91.8333C106.326 98.2404 103.777 104.383 99.2469 108.913C94.7165 113.444 88.574 115.992 82.167 116H33.8337C27.4266 115.992 21.2842 113.444 16.7537 108.913C12.2233 104.383 9.67467 98.2404 9.66699 91.8333V24.1667C9.67467 17.7596 12.2233 11.6172 16.7537 7.08672C21.2842 2.55625 27.4266 0.00766398 33.8337 -1.06684e-05H55.6562C60.101 -0.0114508 64.504 0.85833 68.6106 2.55904C72.7172 4.25975 76.4459 6.75766 79.5812 9.90832L96.4205 26.7573C99.573 29.8905 102.072 33.618 103.774 37.724C105.476 41.83 106.346 46.2329 106.334 50.6775ZM72.7468 16.7427C71.2257 15.2693 69.5178 14.0018 67.667 12.9727V33.8333C67.667 35.1152 68.1762 36.3446 69.0826 37.251C69.9891 38.1574 71.2184 38.6667 72.5003 38.6667H93.361C92.3313 36.8164 91.0621 35.11 89.5862 33.5917L72.7468 16.7427ZM96.667 50.6775C96.667 49.88 96.5123 49.1163 96.4398 48.3333H72.5003C68.6547 48.3333 64.9666 46.8056 62.2473 44.0864C59.528 41.3671 58.0003 37.679 58.0003 33.8333V9.89382C57.2173 9.82132 56.4488 9.66666 55.6562 9.66666H33.8337C29.988 9.66666 26.2999 11.1943 23.5806 13.9136C20.8613 16.6329 19.3337 20.321 19.3337 24.1667V91.8333C19.3337 95.679 20.8613 99.3671 23.5806 102.086C26.2999 104.806 29.988 106.333 33.8337 106.333H82.167C86.0126 106.333 89.7008 104.806 92.42 102.086C95.1393 99.3671 96.667 95.679 96.667 91.8333V50.6775Z"/>
</g>
<defs>
<clipPath id="clip0_168_95">
<rect width="116" height="116"/>
</clipPath>
</defs>
</svg>
