<svg width="190" height="190" viewBox="0 0 190 190" fill="none" xmlns="http://www.w3.org/2000/svg">
<g clip-path="url(#clip0_192_394)">
<path d="M95 0C76.2108 0 57.8435 5.57165 42.2209 16.0104C26.5982 26.4491 14.4218 41.2861 7.23149 58.6451C0.0411622 76.0041 -1.84015 95.1054 1.82544 113.534C5.49104 131.962 14.5389 148.889 27.8249 162.175C41.1109 175.461 58.0383 184.509 76.4665 188.175C94.8947 191.84 113.996 189.959 131.355 182.769C148.714 175.578 163.551 163.402 173.99 147.779C184.428 132.157 190 113.789 190 95C189.973 69.8128 179.955 45.665 162.145 27.8549C144.335 10.0449 120.187 0.0272419 95 0ZM95 174.167C79.3424 174.167 64.0363 169.524 51.0174 160.825C37.9985 152.126 27.8515 139.762 21.8596 125.296C15.8676 110.83 14.2999 94.9122 17.3545 79.5554C20.4092 64.1985 27.9491 50.0924 39.0208 39.0207C50.0924 27.9491 64.1986 20.4092 79.5554 17.3545C94.9122 14.2998 110.83 15.8676 125.296 21.8595C139.762 27.8515 152.126 37.9985 160.825 51.0174C169.524 64.0363 174.167 79.3423 174.167 95C174.144 115.989 165.796 136.112 150.954 150.954C136.112 165.795 115.989 174.144 95 174.167Z" fill="#00308F"/>
<path d="M95.0003 79.1667H87.0837C84.984 79.1667 82.9704 80.0008 81.4857 81.4855C80.0011 82.9702 79.167 84.9838 79.167 87.0834C79.167 89.183 80.0011 91.1967 81.4857 92.6813C82.9704 94.166 84.984 95.0001 87.0837 95.0001H95.0003V142.5C95.0003 144.6 95.8344 146.613 97.3191 148.098C98.8037 149.583 100.817 150.417 102.917 150.417C105.017 150.417 107.03 149.583 108.515 148.098C110 146.613 110.834 144.6 110.834 142.5V95.0001C110.834 90.8008 109.166 86.7736 106.196 83.8042C103.227 80.8349 99.1996 79.1667 95.0003 79.1667Z" fill="#00308F"/>
<path d="M95 63.3333C101.558 63.3333 106.875 58.0166 106.875 51.4583C106.875 44.8999 101.558 39.5833 95 39.5833C88.4416 39.5833 83.125 44.8999 83.125 51.4583C83.125 58.0166 88.4416 63.3333 95 63.3333Z" fill="#00308F"/>
</g>
<defs>
<clipPath id="clip0_192_394">
<rect width="190" height="190" fill="white"/>
</clipPath>
</defs>
</svg>
