<svg width="204" height="204" viewBox="0 0 204 204" fill="none" xmlns="http://www.w3.org/2000/svg">
<g clip-path="url(#clip0_42_601)">
<path d="M33.9998 51C30.6487 51.0088 27.3291 50.353 24.2331 49.0705C21.1371 47.788 18.3261 45.9044 15.9628 43.5285L2.83883 31.8495C1.15483 30.3481 0.136238 28.2392 0.00711953 25.9868C-0.121999 23.7344 0.648935 21.523 2.15033 19.839C3.65172 18.155 5.76058 17.1364 8.01298 17.0073C10.2654 16.8782 12.4768 17.6491 14.1608 19.1505L27.6333 31.1695C28.4046 32.0356 29.3449 32.7347 30.3965 33.2239C31.448 33.713 32.5886 33.9817 33.7479 34.0136C34.9072 34.0454 36.0607 33.8397 37.1375 33.409C38.2144 32.9784 39.1917 32.332 40.0093 31.5095L70.6433 2.34599C72.2906 0.87949 74.4433 0.110654 76.6469 0.201876C78.8505 0.293098 80.9323 1.23724 82.4527 2.83487C83.9731 4.4325 84.813 6.55854 84.795 8.76393C84.7771 10.9693 83.9026 13.0814 82.3563 14.654L51.8498 43.673C49.5019 46.0072 46.7169 47.8558 43.6541 49.113C40.5912 50.3703 37.3106 51.0115 33.9998 51ZM204 34C204 31.7457 203.104 29.5836 201.51 27.9896C199.916 26.3955 197.754 25.5 195.5 25.5H110.5C108.245 25.5 106.083 26.3955 104.489 27.9896C102.895 29.5836 102 31.7457 102 34C102 36.2543 102.895 38.4163 104.489 40.0104C106.083 41.6045 108.245 42.5 110.5 42.5H195.5C197.754 42.5 199.916 41.6045 201.51 40.0104C203.104 38.4163 204 36.2543 204 34ZM51.8498 111.673L82.3563 82.654C83.2078 81.896 83.8981 80.9744 84.3861 79.9441C84.8741 78.9139 85.1499 77.796 85.1971 76.657C85.2442 75.5179 85.0618 74.3811 84.6606 73.314C84.2594 72.2469 83.6476 71.2715 82.8617 70.4457C82.0758 69.6198 81.1319 68.9606 80.086 68.507C79.0401 68.0535 77.9136 67.815 76.7737 67.8057C75.6337 67.7964 74.5035 68.0165 73.4504 68.4529C72.3972 68.8893 71.4426 69.5331 70.6433 70.346L40.0433 99.5095C38.4252 101.057 36.2727 101.92 34.0338 101.92C31.795 101.92 29.6424 101.057 28.0243 99.5095L14.5093 86.037C12.9062 84.4887 10.7591 83.6319 8.53042 83.6513C6.30174 83.6706 4.16984 84.5646 2.59387 86.1405C1.0179 87.7165 0.123963 89.8484 0.104596 92.0771C0.0852296 94.3058 0.941982 96.4529 2.49033 98.056L15.9628 111.529C20.72 116.287 27.1651 118.972 33.8936 118.999C40.622 119.026 47.0885 116.393 51.8838 111.673H51.8498ZM204 102C204 99.7457 203.104 97.5837 201.51 95.9896C199.916 94.3955 197.754 93.5 195.5 93.5H110.5C108.245 93.5 106.083 94.3955 104.489 95.9896C102.895 97.5837 102 99.7457 102 102C102 104.254 102.895 106.416 104.489 108.01C106.083 109.604 108.245 110.5 110.5 110.5H195.5C197.754 110.5 199.916 109.604 201.51 108.01C203.104 106.416 204 104.254 204 102ZM51.8498 179.673L82.3223 150.654C83.1738 149.896 83.8641 148.974 84.3521 147.944C84.8401 146.914 85.1159 145.796 85.163 144.657C85.2102 143.518 85.0277 142.381 84.6265 141.314C84.2254 140.247 83.6136 139.271 82.8277 138.446C82.0418 137.62 81.0979 136.961 80.052 136.507C79.0061 136.053 77.8796 135.815 76.7396 135.806C75.5997 135.796 74.4695 136.016 73.4163 136.453C72.3632 136.889 71.4086 137.533 70.6093 138.346L40.0093 167.51C39.1917 168.332 38.2144 168.978 37.1375 169.409C36.0607 169.84 34.9072 170.045 33.7479 170.014C32.5886 169.982 31.448 169.713 30.3965 169.224C29.3449 168.735 28.4046 168.036 27.6333 167.17L14.1608 155.151C12.4768 153.649 10.2654 152.878 8.01298 153.007C5.76058 153.136 3.65172 154.155 2.15033 155.839C0.648935 157.523 -0.121999 159.734 0.00711953 161.987C0.136238 164.239 1.15483 166.348 2.83883 167.85L15.9628 179.529C20.72 184.287 27.1651 186.972 33.8936 186.999C40.622 187.026 47.0885 184.393 51.8838 179.673H51.8498ZM204 170C204 167.746 203.104 165.584 201.51 163.99C199.916 162.396 197.754 161.5 195.5 161.5H110.5C108.245 161.5 106.083 162.396 104.489 163.99C102.895 165.584 102 167.746 102 170C102 172.254 102.895 174.416 104.489 176.01C106.083 177.604 108.245 178.5 110.5 178.5H195.5C197.754 178.5 199.916 177.604 201.51 176.01C203.104 174.416 204 172.254 204 170Z" fill="white"/>
</g>
<defs>
<clipPath id="clip0_42_601">
<rect width="204" height="204" fill="white"/>
</clipPath>
</defs>
</svg>
