<svg width="108" height="108" viewBox="0 0 108 108" fill="none" xmlns="http://www.w3.org/2000/svg">
<g clip-path="url(#clip0_42_606)">
<path d="M103.5 99H13.5C12.3065 99 11.1619 98.5259 10.318 97.682C9.47411 96.8381 9 95.6935 9 94.5V4.5C9 3.30653 8.52589 2.16193 7.68198 1.31802C6.83807 0.474106 5.69347 0 4.5 0C3.30653 0 2.16193 0.474106 1.31802 1.31802C0.474106 2.16193 0 3.30653 0 4.5L0 94.5C0 98.0804 1.42232 101.514 3.95406 104.046C6.4858 106.578 9.91958 108 13.5 108H103.5C104.693 108 105.838 107.526 106.682 106.682C107.526 105.838 108 104.693 108 103.5C108 102.307 107.526 101.162 106.682 100.318C105.838 99.4741 104.693 99 103.5 99Z" fill="white"/>
<path d="M67.5 90C68.6935 90 69.8381 89.5259 70.682 88.682C71.5259 87.8381 72 86.6935 72 85.5V54C72 52.8065 71.5259 51.6619 70.682 50.818C69.8381 49.9741 68.6935 49.5 67.5 49.5C66.3065 49.5 65.1619 49.9741 64.318 50.818C63.4741 51.6619 63 52.8065 63 54V85.5C63 86.6935 63.4741 87.8381 64.318 88.682C65.1619 89.5259 66.3065 90 67.5 90Z" fill="white"/>
<path d="M31.5 90C32.6935 90 33.8381 89.5259 34.682 88.682C35.5259 87.8381 36 86.6935 36 85.5V54C36 52.8065 35.5259 51.6619 34.682 50.818C33.8381 49.9741 32.6935 49.5 31.5 49.5C30.3065 49.5 29.1619 49.9741 28.318 50.818C27.4741 51.6619 27 52.8065 27 54V85.5C27 86.6935 27.4741 87.8381 28.318 88.682C29.1619 89.5259 30.3065 90 31.5 90Z" fill="white"/>
<path d="M85.5 90C86.6935 90 87.8381 89.5259 88.682 88.682C89.5259 87.8381 90 86.6935 90 85.5V31.5C90 30.3065 89.5259 29.1619 88.682 28.318C87.8381 27.4741 86.6935 27 85.5 27C84.3065 27 83.1619 27.4741 82.318 28.318C81.4741 29.1619 81 30.3065 81 31.5V85.5C81 86.6935 81.4741 87.8381 82.318 88.682C83.1619 89.5259 84.3065 90 85.5 90Z" fill="white"/>
<path d="M49.5 90C50.6935 90 51.8381 89.5259 52.682 88.682C53.5259 87.8381 54 86.6935 54 85.5V31.5C54 30.3065 53.5259 29.1619 52.682 28.318C51.8381 27.4741 50.6935 27 49.5 27C48.3065 27 47.1619 27.4741 46.318 28.318C45.4741 29.1619 45 30.3065 45 31.5V85.5C45 86.6935 45.4741 87.8381 46.318 88.682C47.1619 89.5259 48.3065 90 49.5 90Z" fill="white"/>
</g>
<defs>
<clipPath id="clip0_42_606">
<rect width="108" height="108" fill="white"/>
</clipPath>
</defs>
</svg>
