<svg width="198" height="198" viewBox="0 0 198 198" fill="none" xmlns="http://www.w3.org/2000/svg">
<path d="M90.7501 107.25V57.75C90.7501 53.2125 94.4626 49.5 99.0001 49.5C103.538 49.5 107.25 53.2125 107.25 57.75V107.25C107.25 111.787 103.538 115.5 99.0001 115.5C94.4626 115.5 90.7501 111.787 90.7501 107.25ZM99.0001 123.75C92.1526 123.75 86.6251 129.277 86.6251 136.125C86.6251 142.973 92.1526 148.5 99.0001 148.5C105.848 148.5 111.375 142.973 111.375 136.125C111.375 129.277 105.848 123.75 99.0001 123.75ZM194.535 164.01C188.76 175.147 176.633 181.5 161.453 181.5H36.6301C21.3676 181.5 9.32256 175.147 3.54756 164.01C-2.30994 152.79 -0.659936 138.435 7.67256 126.39L74.0026 21.45C79.8601 13.035 89.1001 8.25 99.0001 8.25C108.9 8.25 118.14 13.035 123.75 21.2025L190.41 126.555C198.743 138.6 200.31 152.872 194.453 164.01H194.535ZM176.798 135.795C176.798 135.795 176.633 135.63 176.633 135.465L110.055 30.2775C107.663 26.895 103.538 24.75 99.0001 24.75C94.4626 24.75 90.3376 26.895 87.7801 30.6075L21.3676 135.465C16.2526 142.725 15.0976 150.645 18.0676 156.338C20.9551 161.948 27.5551 165 36.5476 165H161.288C170.28 165 176.88 161.948 179.768 156.338C182.738 150.645 181.583 142.725 176.715 135.795H176.798Z" fill="white"/>
</svg>
