<svg width="116" height="116" viewBox="0 0 116 116" fill="current" xmlns="http://www.w3.org/2000/svg">
<path d="M58 77.3333C54.1762 77.3333 50.4383 76.1995 47.259 74.0751C44.0796 71.9507 41.6016 68.9313 40.1383 65.3986C38.675 61.8659 38.2922 57.9786 39.0382 54.2283C39.7841 50.478 41.6255 47.0331 44.3293 44.3293C47.0331 41.6255 50.478 39.7841 54.2283 39.0382C57.9786 38.2922 61.8658 38.675 65.3986 40.1383C68.9313 41.6016 71.9507 44.0796 74.0751 47.259C76.1995 50.4383 77.3333 54.1762 77.3333 58C77.3333 63.1275 75.2964 68.045 71.6707 71.6707C68.045 75.2964 63.1275 77.3333 58 77.3333ZM58 48.3333C56.0881 48.3333 54.2192 48.9003 52.6295 49.9625C51.0398 51.0247 49.8008 52.5344 49.0692 54.3007C48.3375 56.0671 48.1461 58.0107 48.5191 59.8859C48.8921 61.761 49.8127 63.4835 51.1646 64.8354C52.5165 66.1873 54.239 67.1079 56.1141 67.4809C57.9893 67.8539 59.9329 67.6625 61.6993 66.9308C63.4656 66.1992 64.9754 64.9602 66.0375 63.3705C67.0997 61.7808 67.6667 59.9119 67.6667 58C67.6667 55.4363 66.6482 52.9775 64.8354 51.1646C63.0225 49.3518 60.5638 48.3333 58 48.3333ZM87 111.167C87 103.475 83.9447 96.0991 78.5061 90.6606C73.0676 85.222 65.6913 82.1667 58 82.1667C50.3087 82.1667 42.9325 85.222 37.4939 90.6606C32.0554 96.0991 29 103.475 29 111.167C29 112.449 29.5092 113.678 30.4157 114.584C31.3221 115.491 32.5515 116 33.8333 116C35.1152 116 36.3446 115.491 37.251 114.584C38.1574 113.678 38.6667 112.449 38.6667 111.167C38.6667 106.039 40.7036 101.122 44.3293 97.496C47.955 93.8702 52.8725 91.8333 58 91.8333C63.1275 91.8333 68.045 93.8702 71.6707 97.496C75.2964 101.122 77.3333 106.039 77.3333 111.167C77.3333 112.449 77.8426 113.678 78.749 114.584C79.6554 115.491 80.8848 116 82.1667 116C83.4485 116 84.6779 115.491 85.5844 114.584C86.4908 113.678 87 112.449 87 111.167ZM87 38.6667C83.1762 38.6667 79.4383 37.5328 76.259 35.4084C73.0796 33.284 70.6016 30.2646 69.1383 26.7319C67.675 23.1992 67.2922 19.3119 68.0382 15.5616C68.7841 11.8113 70.6255 8.36643 73.3293 5.66261C76.0331 2.9588 79.478 1.11747 83.2283 0.371493C86.9786 -0.374488 90.8658 0.0083768 94.3985 1.47167C97.9313 2.93497 100.951 5.41297 103.075 8.59232C105.199 11.7717 106.333 15.5096 106.333 19.3333C106.333 24.4609 104.296 29.3784 100.671 33.0041C97.045 36.6298 92.1275 38.6667 87 38.6667ZM87 9.66668C85.0881 9.66668 83.2192 10.2336 81.6295 11.2958C80.0398 12.358 78.8008 13.8677 78.0692 15.6341C77.3375 17.4004 77.1461 19.3441 77.5191 21.2192C77.8921 23.0944 78.8127 24.8168 80.1646 26.1687C81.5165 27.5206 83.239 28.4413 85.1141 28.8143C86.9893 29.1873 88.9329 28.9958 90.6993 28.2642C92.4656 27.5325 93.9754 26.2935 95.0375 24.7039C96.0997 23.1142 96.6667 21.2452 96.6667 19.3333C96.6667 16.7696 95.6482 14.3108 93.8354 12.498C92.0225 10.6851 89.5638 9.66668 87 9.66668ZM116 72.5C115.992 64.8111 112.935 57.4393 107.498 52.0024C102.061 46.5655 94.6889 43.5077 87 43.5C85.7181 43.5 84.4887 44.0092 83.5823 44.9157C82.6759 45.8221 82.1667 47.0515 82.1667 48.3333C82.1667 49.6152 82.6759 50.8446 83.5823 51.751C84.4887 52.6575 85.7181 53.1667 87 53.1667C92.1275 53.1667 97.045 55.2036 100.671 58.8293C104.296 62.455 106.333 67.3725 106.333 72.5C106.333 73.7819 106.843 75.0113 107.749 75.9177C108.655 76.8241 109.885 77.3333 111.167 77.3333C112.449 77.3333 113.678 76.8241 114.584 75.9177C115.491 75.0113 116 73.7819 116 72.5ZM29 38.6667C25.1762 38.6667 21.4383 37.5328 18.259 35.4084C15.0796 33.284 12.6016 30.2646 11.1383 26.7319C9.67504 23.1992 9.29217 19.3119 10.0382 15.5616C10.7841 11.8113 12.6255 8.36643 15.3293 5.66261C18.0331 2.9588 21.478 1.11747 25.2283 0.371493C28.9786 -0.374488 32.8658 0.0083768 36.3985 1.47167C39.9313 2.93497 42.9507 5.41297 45.0751 8.59232C47.1995 11.7717 48.3333 15.5096 48.3333 19.3333C48.3333 24.4609 46.2964 29.3784 42.6707 33.0041C39.045 36.6298 34.1275 38.6667 29 38.6667ZM29 9.66668C27.0881 9.66668 25.2192 10.2336 23.6295 11.2958C22.0398 12.358 20.8008 13.8677 20.0692 15.6341C19.3375 17.4004 19.1461 19.3441 19.5191 21.2192C19.8921 23.0944 20.8127 24.8168 22.1646 26.1687C23.5165 27.5206 25.239 28.4413 27.1141 28.8143C28.9893 29.1873 30.9329 28.9958 32.6993 28.2642C34.4656 27.5325 35.9754 26.2935 37.0375 24.7039C38.0997 23.1142 38.6667 21.2452 38.6667 19.3333C38.6667 16.7696 37.6482 14.3108 35.8354 12.498C34.0225 10.6851 31.5638 9.66668 29 9.66668ZM9.66667 72.5C9.66667 67.3725 11.7036 62.455 15.3293 58.8293C18.955 55.2036 23.8725 53.1667 29 53.1667C30.2819 53.1667 31.5113 52.6575 32.4177 51.751C33.3241 50.8446 33.8333 49.6152 33.8333 48.3333C33.8333 47.0515 33.3241 45.8221 32.4177 44.9157C31.5113 44.0092 30.2819 43.5 29 43.5C21.3111 43.5077 13.9393 46.5655 8.50238 52.0024C3.06549 57.4393 0.00767741 64.8111 0 72.5C0 73.7819 0.509225 75.0113 1.41565 75.9177C2.32208 76.8241 3.55145 77.3333 4.83333 77.3333C6.11521 77.3333 7.34459 76.8241 8.25102 75.9177C9.15744 75.0113 9.66667 73.7819 9.66667 72.5Z"/>
</svg>
