<svg width="108" height="108" viewBox="0 0 108 108" fill="none" xmlns="http://www.w3.org/2000/svg">
<path d="M100.768 81C97.0459 87.4602 88.7913 89.6797 82.3311 85.9575C82.3267 85.9549 82.3224 85.9524 82.318 85.9499L80.3156 84.7933C76.5356 88.0274 72.1907 90.5354 67.4997 92.1913V94.5C67.4997 101.956 61.4555 108 53.9997 108C46.5439 108 40.4997 101.956 40.4997 94.5V92.1915C35.808 90.5329 31.4629 88.0219 27.6837 84.7844L25.6722 85.9454C19.2106 89.6733 10.9501 87.4572 7.22215 80.9954C3.49426 74.5337 5.71037 66.2732 12.1722 62.5453L14.1702 61.3934C13.2708 56.4994 13.2708 51.4825 14.1702 46.5883L12.1722 45.4364C5.71058 41.7085 3.49426 33.4481 7.22215 26.9863C10.9501 20.5246 19.2104 18.3083 25.6722 22.0362L27.6747 23.1928C31.4585 19.9627 35.8063 17.4593 40.4997 15.8085V13.5C40.4997 6.0442 46.5439 0 53.9997 0C61.4555 0 67.4997 6.0442 67.4997 13.5V15.8085C72.1913 17.4671 76.5364 19.9781 80.3156 23.2156L82.3271 22.0501C88.7889 18.322 97.0493 20.5384 100.777 27C104.505 33.4616 102.289 41.7222 95.8271 45.4501L93.8291 46.602C94.7285 51.496 94.7285 56.5129 93.8291 61.4071L95.8271 62.559C102.271 66.2968 104.48 74.5411 100.768 81ZM53.9997 36.0001C44.0586 36.0001 35.9997 44.0589 35.9997 54C35.9997 63.9411 44.0586 71.9999 53.9997 71.9999C63.9407 71.9999 71.9996 63.9411 71.9996 54C71.9996 44.0589 63.9407 36.0001 53.9997 36.0001Z" fill="white"/>
</svg>
